<mxfile host="app.diagrams.net" modified="2023-08-18T23:45:59.383Z" agent="Mozilla/5.0 (Windows NT 10.0; Win64; x64) AppleWebKit/537.36 (KHTML, like Gecko) Chrome/115.0.0.0 Safari/537.36 Edg/115.0.1901.203" version="21.6.8" etag="q3M9EgaFqeyLi5sllHHS" type="github">
  <diagram name="PÃ¡gina-1" id="Z9vX-X6gh7oqEdkZJGvN">
    <mxGraphModel>
      <root>
        <mxCell id="0" />
        <mxCell id="1" parent="0" />
      </root>
    </mxGraphModel>
  </diagram>
</mxfile>
